<svg xmlns="http://www.w3.org/2000/svg" width="128" height="128" id="math"><path d="M65.945 96a2 2 0 0 0-1.15.404 2 2 0 0 0-.39 2.801c1.692 2.241 2.61 5.522 2.595 8.824-.015 3.303-.968 6.58-2.604 8.778a2 2 0 0 0 .41 2.797 2 2 0 0 0 2.798-.41c2.296-3.085 3.377-7.115 3.396-11.145.019-4.03-1.03-8.11-3.404-11.254a2 2 0 0 0-1.65-.795z" color="#000" font-family="sans-serif" font-weight="400" overflow="visible" paint-order="markers fill stroke" style="line-height:normal;font-variant-ligatures:normal;font-variant-position:normal;font-variant-caps:normal;font-variant-numeric:normal;font-variant-alternates:normal;font-variant-east-asian:normal;font-feature-settings:normal;font-variation-settings:normal;text-indent:0;text-align:start;text-decoration-line:none;text-decoration-style:solid;text-decoration-color:#000;text-transform:none;text-orientation:mixed;shape-padding:0;shape-margin:0;inline-size:0;isolation:auto;mix-blend-mode:normal"></path><path fill-rule="evenodd" d="M22 4a2 2 0 0 0-1.414.586l-16 16A2 2 0 0 0 4 22v84a2 2 0 0 0 2 2h52a2 2 0 1 0 0-4H8V22.828L22.828 8H80v14a2 2 0 0 0 4 0V6a2 2 0 0 0-2-2z" color="#000" font-family="sans-serif" font-weight="400" overflow="visible" paint-order="markers fill stroke" style="line-height:normal;font-variant-ligatures:normal;font-variant-position:normal;font-variant-caps:normal;font-variant-numeric:normal;font-variant-alternates:normal;font-variant-east-asian:normal;font-feature-settings:normal;font-variation-settings:normal;text-indent:0;text-align:start;text-decoration-line:none;text-decoration-style:solid;text-decoration-color:#000;text-transform:none;text-orientation:mixed;shape-padding:0;shape-margin:0;inline-size:0;isolation:auto;mix-blend-mode:normal"></path><path d="M22 40.006a2 2 0 0 0-2 2v4c0 3.29 2.71 6 6 6h8a2 2 0 0 0 2-2 2 2 0 0 0-2-2h-2v-2a2 2 0 0 0-2-2 2 2 0 0 0-2 2v2h-2c-1.128 0-2-.872-2-2v-4a2 2 0 0 0-2-2zm4 16c-3.29 0-6 2.71-6 6v4a2 2 0 0 0 2 2h12a2 2 0 0 0 2-2v-4c0-3.29-2.71-6-6-6zm0 4h4c1.128 0 2 .872 2 2v2h-8v-2c0-1.128.872-2 2-2zm0 12c-3.29 0-6 2.71-6 6v4a2 2 0 0 0 2 2h12a2 2 0 0 0 2-2 2 2 0 0 0-2-2h-2v-2c0-3.29-2.71-6-6-6zm0 4c1.128 0 2 .872 2 2v2h-4v-2c0-1.128.872-2 2-2z" color="#000" font-family="sans-serif" font-weight="400" overflow="visible" paint-order="markers fill stroke" style="line-height:normal;font-variant-ligatures:normal;font-variant-position:normal;font-variant-caps:normal;font-variant-numeric:normal;font-variant-alternates:normal;font-variant-east-asian:normal;font-feature-settings:normal;font-variation-settings:normal;text-indent:0;text-align:start;text-decoration-line:none;text-decoration-style:solid;text-decoration-color:#000;text-transform:none;text-orientation:mixed;shape-padding:0;shape-margin:0;inline-size:0;isolation:auto;mix-blend-mode:normal"></path><path fill-rule="evenodd" d="M62 92a2 2 0 0 0-2 2v4a2 2 0 0 0 2 2h50c2.233 0 4 1.767 4 4v8c0 2.233-1.767 4-4 4H62a2 2 0 0 0-2 2v4a2 2 0 0 0 2 2h50c6.604 0 12-5.396 12-12v-8c0-6.604-5.396-12-12-12z" color="#000" font-family="sans-serif" font-weight="400" overflow="visible" paint-order="markers fill stroke" style="line-height:normal;font-variant-ligatures:normal;font-variant-position:normal;font-variant-caps:normal;font-variant-numeric:normal;font-variant-alternates:normal;font-variant-east-asian:normal;font-feature-settings:normal;font-variation-settings:normal;text-indent:0;text-align:start;text-decoration-line:none;text-decoration-style:solid;text-decoration-color:#000;text-transform:none;text-orientation:mixed;shape-padding:0;shape-margin:0;inline-size:0;isolation:auto;mix-blend-mode:normal"></path><path d="M65.945 32a2 2 0 0 0-1.15.404 2 2 0 0 0-.39 2.801c1.692 2.241 2.61 5.522 2.595 8.824-.015 3.303-.968 6.58-2.604 8.778a2 2 0 0 0 .41 2.797 2 2 0 0 0 2.798-.41C69.9 52.108 70.98 48.078 71 44.048c.019-4.03-1.03-8.11-3.404-11.254a2 2 0 0 0-1.65-.795z" color="#000" font-family="sans-serif" font-weight="400" overflow="visible" paint-order="markers fill stroke" style="line-height:normal;font-variant-ligatures:normal;font-variant-position:normal;font-variant-caps:normal;font-variant-numeric:normal;font-variant-alternates:normal;font-variant-east-asian:normal;font-feature-settings:normal;font-variation-settings:normal;text-indent:0;text-align:start;text-decoration-line:none;text-decoration-style:solid;text-decoration-color:#000;text-transform:none;text-orientation:mixed;shape-padding:0;shape-margin:0;inline-size:0;isolation:auto;mix-blend-mode:normal"></path><path fill-rule="evenodd" d="M62 28a2 2 0 0 0-2 2v4a2 2 0 0 0 2 2h50c2.233 0 4 1.767 4 4v8c0 2.233-1.767 4-4 4H62a2 2 0 0 0-2 2v4a2 2 0 0 0 2 2h50c6.604 0 12-5.396 12-12v-8c0-6.604-5.396-12-12-12z" color="#000" font-family="sans-serif" font-weight="400" overflow="visible" paint-order="markers fill stroke" style="line-height:normal;font-variant-ligatures:normal;font-variant-position:normal;font-variant-caps:normal;font-variant-numeric:normal;font-variant-alternates:normal;font-variant-east-asian:normal;font-feature-settings:normal;font-variation-settings:normal;text-indent:0;text-align:start;text-decoration-line:none;text-decoration-style:solid;text-decoration-color:#000;text-transform:none;text-orientation:mixed;shape-padding:0;shape-margin:0;inline-size:0;isolation:auto;mix-blend-mode:normal"></path><path d="M21.93 4.008a2 2 0 0 0-1.344.584l-16 16A2 2 0 0 0 6 24.006h16a2 2 0 0 0 2-2v-16a2 2 0 0 0-2.07-1.998zM106.055 64a2 2 0 0 1 1.15.404 2 2 0 0 1 .39 2.801c-1.692 2.241-2.61 5.522-2.595 8.824.015 3.303.968 6.58 2.604 8.778a2 2 0 0 1-.41 2.797 2 2 0 0 1-2.798-.41c-2.296-3.085-3.377-7.115-3.396-11.145-.019-4.03 1.03-8.11 3.404-11.254a2 2 0 0 1 1.65-.795z" color="#000" font-family="sans-serif" font-weight="400" overflow="visible" paint-order="markers fill stroke" style="line-height:normal;font-variant-ligatures:normal;font-variant-position:normal;font-variant-caps:normal;font-variant-numeric:normal;font-variant-alternates:normal;font-variant-east-asian:normal;font-feature-settings:normal;font-variation-settings:normal;text-indent:0;text-align:start;text-decoration-line:none;text-decoration-style:solid;text-decoration-color:#000;text-transform:none;text-orientation:mixed;shape-padding:0;shape-margin:0;inline-size:0;isolation:auto;mix-blend-mode:normal"></path><path fill-rule="evenodd" d="M110 60a2 2 0 0 1 2 2v4a2 2 0 0 1-2 2H60a3.97 3.97 0 0 0-4 4v8c0 2.233 1.767 4 4 4h50a2 2 0 0 1 2 2v4a2 2 0 0 1-2 2H60c-6.604 0-12-5.396-12-12v-8c0-6.604 5.396-12 12-12z" color="#000" font-family="sans-serif" font-weight="400" overflow="visible" paint-order="markers fill stroke" style="line-height:normal;font-variant-ligatures:normal;font-variant-position:normal;font-variant-caps:normal;font-variant-numeric:normal;font-variant-alternates:normal;font-variant-east-asian:normal;font-feature-settings:normal;font-variation-settings:normal;text-indent:0;text-align:start;text-decoration-line:none;text-decoration-style:solid;text-decoration-color:#000;text-transform:none;text-orientation:mixed;shape-padding:0;shape-margin:0;inline-size:0;isolation:auto;mix-blend-mode:normal"></path></svg>